<svg width="2260" height="2812" viewBox="0 0 2260 2812" fill="none" xmlns="http://www.w3.org/2000/svg">
<g clip-path="url(#clip0_274_224)">
<rect width="2260" height="2812" fill="white"/>
<g clip-path="url(#clip1_274_224)">
<rect width="1134" height="998" transform="translate(-7 1479)" fill="white"/>
<path d="M158 1533.52L-28.75 1596.74L-28.75 1470.3L158 1533.52Z" fill="#1C69FF"/>
<path d="M960 2422.48L1146.75 2359.26L1146.75 2485.7L960 2422.48Z" fill="#1C69FF"/>
<path d="M382 1541.38L159.25 1603.4L159.25 1479.35L382 1541.38Z" fill="#FF7D35"/>
<path d="M736 2413.7L958.75 2351.68L958.75 2475.72L736 2413.7Z" fill="#FF7D35"/>
<path d="M158 2033.44L-28.75 2096.67L-28.75 1970.22L158 2033.44Z" fill="#1C69FF"/>
<path d="M960 1907.77L1146.75 1844.55L1146.75 1970.99L960 1907.77Z" fill="#1C69FF"/>
<path d="M382 2040.38L159.25 2102.4L159.25 1978.35L382 2040.38Z" fill="#FF7D35"/>
<path d="M736 1914.7L958.75 1852.68L958.75 1976.72L736 1914.7Z" fill="#FF7D35"/>
<path d="M158 1776.55L-28.75 1841.37L-28.75 1711.73L158 1776.55Z" fill="#1C69FF"/>
<path d="M960 2164.66L1146.75 2099.84L1146.75 2229.49L960 2164.66Z" fill="#1C69FF"/>
<path d="M382 1790.88L159.25 1853.7L159.25 1728.05L382 1790.88Z" fill="#FF7D35"/>
<path d="M736 2164.2L958.75 2101.38L958.75 2227.02L736 2164.2Z" fill="#FF7D35"/>
<path d="M158 2292.19L-28.75 2356.21L-28.75 2228.16L158 2292.19Z" fill="#1C69FF"/>
<path d="M960 1649.03L1146.75 1585.01L1146.75 1713.05L960 1649.03Z" fill="#1C69FF"/>
<path d="M382 2289.41L159.25 2351.83L159.25 2226.99L382 2289.41Z" fill="#FF7D35"/>
<path d="M736 1665.66L958.75 1603.24L958.75 1728.08L736 1665.66Z" fill="#FF7D35"/>
<path d="M158 1647.64L-28.75 1712.07L-28.75 1583.22L158 1647.64Z" fill="#1C69FF"/>
<path d="M960 2293.57L1146.75 2229.15L1146.75 2357.99L960 2293.57Z" fill="#1C69FF"/>
<path d="M382 1666.59L159.25 1729.01L159.25 1604.17L382 1666.59Z" fill="#FF7D35"/>
<path d="M736 2288.49L958.75 2226.07L958.75 2350.91L736 2288.49Z" fill="#FF7D35"/>
<path d="M158 2163.74L-28.75 2228.56L-28.75 2098.92L158 2163.74Z" fill="#1C69FF"/>
<path d="M960 1777.48L1146.75 1712.65L1146.75 1842.3L960 1777.48Z" fill="#1C69FF"/>
<path d="M382 2165.13L159.25 2227.95L159.25 2102.3L382 2165.13Z" fill="#FF7D35"/>
<path d="M736 1789.95L958.75 1727.13L958.75 1852.77L736 1789.95Z" fill="#FF7D35"/>
<path d="M158 1906.85L-28.75 1970.07L-28.75 1843.62L158 1906.85Z" fill="#1C69FF"/>
<path d="M960 2034.37L1146.75 1971.15L1146.75 2097.59L960 2034.37Z" fill="#1C69FF"/>
<path d="M382 1915.63L159.25 1977.65L159.25 1853.6L382 1915.63Z" fill="#FF7D35"/>
<path d="M736 2039.45L958.75 1977.43L958.75 2101.47L736 2039.45Z" fill="#FF7D35"/>
<path d="M158 2421.56L-28.75 2484.78L-28.75 2358.33L158 2421.56Z" fill="#1C69FF"/>
<path d="M960 1533.52L1146.75 1470.3L1146.75 1596.74L960 1533.52Z" fill="#1C69FF"/>
<path d="M382 2414.63L159.25 2476.65L159.25 2352.6L382 2414.63Z" fill="#FF7D35"/>
<path d="M736 1540.45L958.75 1478.43L958.75 1602.47L736 1540.45Z" fill="#FF7D35"/>
<rect x="383" y="1469" width="354" height="1018" fill="#1C69FF"/>
</g>
<g clip-path="url(#clip2_274_224)">
<rect width="1133" height="998" transform="translate(1127 1479)" fill="white"/>
<path d="M1292 1533.52L1105.25 1596.74L1105.25 1470.3L1292 1533.52Z" fill="#1C69FF"/>
<path d="M2093 2422.48L2279.75 2359.26L2279.75 2485.7L2093 2422.48Z" fill="#1C69FF"/>
<path d="M1516 1541.38L1293.25 1603.4L1293.25 1479.35L1516 1541.38Z" fill="#FF7D35"/>
<path d="M1869 2413.7L2091.75 2351.68L2091.75 2475.72L1869 2413.7Z" fill="#FF7D35"/>
<path d="M1292 2033.44L1105.25 2096.67L1105.25 1970.22L1292 2033.44Z" fill="#1C69FF"/>
<path d="M2093 1907.77L2279.75 1844.55L2279.75 1970.99L2093 1907.77Z" fill="#1C69FF"/>
<path d="M1516 2040.38L1293.25 2102.4L1293.25 1978.35L1516 2040.38Z" fill="#FF7D35"/>
<path d="M1869 1914.7L2091.75 1852.68L2091.75 1976.72L1869 1914.7Z" fill="#FF7D35"/>
<path d="M1292 1776.55L1105.25 1841.37L1105.25 1711.73L1292 1776.55Z" fill="#1C69FF"/>
<path d="M2093 2164.66L2279.75 2099.84L2279.75 2229.49L2093 2164.66Z" fill="#1C69FF"/>
<path d="M1516 1790.88L1293.25 1853.7L1293.25 1728.05L1516 1790.88Z" fill="#FF7D35"/>
<path d="M1869 2164.2L2091.75 2101.38L2091.75 2227.02L1869 2164.2Z" fill="#FF7D35"/>
<path d="M1292 2292.19L1105.25 2356.21L1105.25 2228.16L1292 2292.19Z" fill="#1C69FF"/>
<path d="M2093 1649.03L2279.75 1585.01L2279.75 1713.05L2093 1649.03Z" fill="#1C69FF"/>
<path d="M1516 2289.41L1293.25 2351.83L1293.25 2226.99L1516 2289.41Z" fill="#FF7D35"/>
<path d="M1869 1665.66L2091.75 1603.24L2091.75 1728.08L1869 1665.66Z" fill="#FF7D35"/>
<path d="M1292 1647.64L1105.25 1712.07L1105.25 1583.22L1292 1647.64Z" fill="#1C69FF"/>
<path d="M2093 2293.57L2279.75 2229.15L2279.75 2357.99L2093 2293.57Z" fill="#1C69FF"/>
<path d="M1516 1666.59L1293.25 1729.01L1293.25 1604.17L1516 1666.59Z" fill="#FF7D35"/>
<path d="M1869 2288.49L2091.75 2226.07L2091.75 2350.91L1869 2288.49Z" fill="#FF7D35"/>
<path d="M1292 2163.74L1105.25 2228.56L1105.25 2098.92L1292 2163.74Z" fill="#1C69FF"/>
<path d="M2093 1777.48L2279.75 1712.65L2279.75 1842.3L2093 1777.48Z" fill="#1C69FF"/>
<path d="M1516 2165.13L1293.25 2227.95L1293.25 2102.3L1516 2165.13Z" fill="#FF7D35"/>
<path d="M1869 1789.95L2091.75 1727.13L2091.75 1852.77L1869 1789.95Z" fill="#FF7D35"/>
<path d="M1292 1906.85L1105.25 1970.07L1105.25 1843.62L1292 1906.85Z" fill="#1C69FF"/>
<path d="M2093 2034.37L2279.75 1971.15L2279.75 2097.59L2093 2034.37Z" fill="#1C69FF"/>
<path d="M1516 1915.63L1293.25 1977.65L1293.25 1853.6L1516 1915.63Z" fill="#FF7D35"/>
<path d="M1869 2039.45L2091.75 1977.43L2091.75 2101.47L1869 2039.45Z" fill="#FF7D35"/>
<path d="M1292 2421.56L1105.25 2484.78L1105.25 2358.33L1292 2421.56Z" fill="#1C69FF"/>
<path d="M2093 1533.52L2279.75 1470.3L2279.75 1596.74L2093 1533.52Z" fill="#1C69FF"/>
<path d="M1516 2414.63L1293.25 2476.65L1293.25 2352.6L1516 2414.63Z" fill="#FF7D35"/>
<path d="M1869 1540.45L2091.75 1478.43L2091.75 1602.47L1869 1540.45Z" fill="#FF7D35"/>
<rect x="1517" y="1469" width="353" height="1018" fill="#1C69FF"/>
</g>
<g clip-path="url(#clip3_274_224)">
<rect width="2267" height="335" transform="translate(-7 2477)" fill="white"/>
<rect x="-7" y="2477" width="2267" height="335" fill="#FF7D35"/>
<rect x="-7" y="2477" width="166" height="220" fill="#3378FF"/>
<rect x="-7" y="2590" width="166" height="220" fill="#3378FF"/>
<rect x="2094" y="2477" width="166" height="220" fill="#3378FF"/>
<rect x="2093" y="2590" width="166" height="222" fill="#3378FF"/>
<rect width="1935" height="193" transform="matrix(1 0 0 -1 159 2740)" fill="white"/>
<path d="M1126.5 2482L2014.61 2697.25H238.391L1126.5 2482Z" fill="#3378FF"/>
<path d="M1122.5 2807L230.927 2590.25L2014.07 2590.25L1122.5 2807Z" fill="#3378FF"/>
<path d="M-6.00003 2642L159 2678.37L159 2605.63L-6.00003 2642Z" fill="#3378FF"/>
<path d="M2257 2644L2093.5 2604.16L2093.5 2683.84L2257 2644Z" fill="#3378FF"/>
</g>
<g clip-path="url(#clip4_274_224)">
<rect width="2261" height="902" transform="translate(-1)" fill="white"/>
<rect y="902" width="902" height="2261" transform="rotate(-90 0 902)" fill="#1C69FF"/>
<rect width="535.196" height="535.196" transform="matrix(0.926281 -0.376832 0.926281 0.376832 634.358 201.679)" fill="#FF7D35"/>
<rect width="535.46" height="535.46" transform="matrix(0.926968 -0.375139 0.926968 0.375139 -1 451.244)" fill="#FF7D35"/>
<rect width="535.196" height="535.196" transform="matrix(0.926281 -0.376832 0.926281 0.376832 634.358 691.005)" fill="#FF7D35"/>
<rect width="535.196" height="535.196" transform="matrix(0.926281 -0.376832 0.926281 0.376832 1252.19 451.244)" fill="#FF7D35"/>
<rect width="334.399" height="334.921" transform="matrix(0.926281 -0.376832 0.926281 0.376832 822.775 201.773)" fill="#1C69FF"/>
<rect width="334.399" height="334.921" transform="matrix(0.926281 -0.376832 0.926281 0.376832 183.035 451.338)" fill="#1C69FF"/>
<rect width="334.399" height="334.921" transform="matrix(0.926281 -0.376832 0.926281 0.376832 816.202 690.208)" fill="#1C69FF"/>
<rect width="334.399" height="334.921" transform="matrix(0.926281 -0.376832 0.926281 0.376832 1436.22 451.338)" fill="#1C69FF"/>
<path d="M480.51 150L9.11918 -75.75L951.9 -75.75L480.51 150Z" fill="#FF7D35"/>
<path d="M1778.49 150L1307.1 -75.75L2249.88 -75.75L1778.49 150Z" fill="#FF7D35"/>
<path d="M480.51 755L788.726 902.75H172.293L480.51 755Z" fill="#FF7D35"/>
<path d="M2112 694.25L2259.75 565.321L2259.75 823.178L2112 694.25Z" fill="#FF7D35"/>
<path d="M1778.9 755L2087.12 902.75H1470.68L1778.9 755Z" fill="#FF7D35"/>
<path d="M2112 203.266L2259.75 48.9313L2259.75 357.601L2112 203.266Z" fill="#FF7D35"/>
<path d="M148 192.66L0.250017 321.589L0.25003 63.7317L148 192.66Z" fill="#FF7D35"/>
<path d="M148 691.825L0.250017 820.754L0.25003 562.897L148 691.825Z" fill="#FF7D35"/>
</g>
<g clip-path="url(#clip5_274_224)">
<rect width="2265" height="588" transform="translate(-2 902)" fill="white"/>
<rect x="-2" y="902" width="2265" height="588" fill="#FF7D35"/>
<rect x="-2" y="902" width="166" height="220" fill="#3378FF"/>
<rect x="-2" y="1268" width="166" height="220" fill="#3378FF"/>
<rect x="2097" y="902" width="166" height="220" fill="#3378FF"/>
<rect x="2096" y="1268" width="166" height="222" fill="#3378FF"/>
<rect x="164" y="1122" width="1933" height="146" fill="white"/>
<path d="M1130.5 907L2017.74 1122.25H243.257L1130.5 907Z" fill="#3378FF"/>
<path d="M1126.5 1485L235.793 1268.25L2017.21 1268.25L1126.5 1485Z" fill="#3378FF"/>
<path d="M-1.00002 1193.5L164 1083.08L164 1303.92L-1.00002 1193.5Z" fill="#3378FF"/>
<path d="M2260 1195.5L2096.5 1302.45L2096.5 1088.55L2260 1195.5Z" fill="#3378FF"/>
</g>
</g>
<defs>
<clipPath id="clip0_274_224">
<rect width="2260" height="2812" fill="white"/>
</clipPath>
<clipPath id="clip1_274_224">
<rect width="1134" height="998" fill="white" transform="translate(-7 1479)"/>
</clipPath>
<clipPath id="clip2_274_224">
<rect width="1133" height="998" fill="white" transform="translate(1127 1479)"/>
</clipPath>
<clipPath id="clip3_274_224">
<rect width="2267" height="335" fill="white" transform="translate(-7 2477)"/>
</clipPath>
<clipPath id="clip4_274_224">
<rect width="2261" height="902" fill="white" transform="translate(-1)"/>
</clipPath>
<clipPath id="clip5_274_224">
<rect width="2265" height="588" fill="white" transform="translate(-2 902)"/>
</clipPath>
</defs>
</svg>
